<?xml version="1.0" encoding="utf-8"?>
<!-- Generator: Adobe Illustrator 25.2.0, SVG Export Plug-In . SVG Version: 6.00 Build 0)  -->
<svg version="1.1" id="Capa_1" xmlns="http://www.w3.org/2000/svg" xmlns:xlink="http://www.w3.org/1999/xlink" x="0px" y="0px"
	 viewBox="0 0 292.8 292.8" style="enable-background:new 0 0 292.8 292.8;" xml:space="preserve">
<style type="text/css">
	.Sombra_x0020_paralela{fill:none;}
	.Esquinas_x0020_redondeadas_x0020_2_x0020_pt_x002E_{fill:#FFFFFF;stroke:#000000;stroke-miterlimit:10;}
	.Reflejo_x0020_vivo_x0020_X{fill:none;}
	.Bisel_x0020_suave{fill:url(#SVGID_1_);}
	.Atardecer{fill:#FFFFFF;}
	.Follaje_GS{fill:#FFE100;}
	.Pompadour_GS{fill-rule:evenodd;clip-rule:evenodd;fill:#66B0E0;}
	.st0{fill:#FFFFFF;}
</style>
<linearGradient id="SVGID_1_" gradientUnits="userSpaceOnUse" x1="0" y1="0" x2="0.7071" y2="0.7071">
	<stop  offset="0" style="stop-color:#E8EAED"/>
	<stop  offset="0.1738" style="stop-color:#E4E6E9"/>
	<stop  offset="0.352" style="stop-color:#D7D8DC"/>
	<stop  offset="0.5323" style="stop-color:#C1C0C4"/>
	<stop  offset="0.7139" style="stop-color:#A4A2A3"/>
	<stop  offset="0.8949" style="stop-color:#808181"/>
	<stop  offset="1" style="stop-color:#696E6D"/>
</linearGradient>
<path class="st0" d="M210.5,249c-33.6-33.6-68.4-68.4-102.7-102.6c33.4-33.2,67.2-67.1,99.9-99.8L222,32.3c1-0.9,2-2,2.9-3.3
	c4.3-5.9,4.9-12.3,1.9-18.7c-2.6-5.4-7.3-9.1-13-10.1c-6.1-1-12.3,1.1-17.1,6c-42.2,42.1-84.3,84.3-126.5,126.4
	c-1.6,1.6-2.8,3.1-3.7,4.7c-4.5,7.7-3,16.2,4.1,23.3l35.3,35.3c29,29,58,58,87,87l0.6,0.7c3.4,3.5,7,7,12.1,9l0.6,0.2h7.4l0.6-0.2
	c3.8-1.3,8.6-3.5,11.5-8.5c4.6-7.8,3.3-16.3-3.8-23.4L210.5,249z"/>
</svg>
