<?xml version="1.0" encoding="utf-8"?>
<!-- Generator: Adobe Illustrator 25.2.0, SVG Export Plug-In . SVG Version: 6.00 Build 0)  -->
<svg version="1.1" id="OBJECTS" xmlns="http://www.w3.org/2000/svg" xmlns:xlink="http://www.w3.org/1999/xlink" x="0px" y="0px"
	 viewBox="0 0 211.6 154.8" style="enable-background:new 0 0 211.6 154.8;" xml:space="preserve">
<style type="text/css">
	._x005B_預設_x005D_{fill:#FFFFFF;stroke:#000000;stroke-miterlimit:10;}
	.st0{fill-rule:evenodd;clip-rule:evenodd;fill:#FFFFFF;}
</style>
<g>
	<path class="st0" d="M106.3,37.3c2.9,0.7,5.5,1.4,8.1,1.9c1.9,0.4,2.6,1.5,2.7,3.2c0.1,0.9,0.2,1.8,0.3,2.9c1.5,0,2.9,0.1,4.3,0.1
		c10.6,0,21.3,0.1,31.9-0.1c5.2-0.1,10.2,0.7,15.2,1.9c3.6,0.9,7.2,1.7,10.8,2.5c0.6,0.1,1.3,0.2,1.9,0.2c6.5,0.2,12.6,1.9,18.8,3.4
		c1.2,0.3,2.4,0.9,3.5,1.4c2.3,1.2,3.8,2.9,4.5,5.4c1.1,3.9,2.4,7.8,2.1,12c0,0.5-0.1,1.1,0.1,1.5c1.1,2.8,0.8,5.8,0.8,8.7
		c0,8.8,0,17.7,0.1,26.5c0,2.2,0.1,4.4-0.7,6.5c-0.2,0.7-0.2,1.5-0.2,2.3c0,3.2,0,6.3-0.7,9.5c-0.5,2.5-0.6,5-0.9,7.6
		c-0.4,3-1.5,5.6-2.8,8.3c-1,2.1-2.7,3.4-4.7,4.3c-5.6,2.5-11.5,4.4-17.5,5.6c-1.9,0.4-3.8,0.5-5.7,0.7c-0.3,0-0.5-0.1-0.8,0
		c-4.2,1.4-8.6,0.9-13,0.9c-25.3,0-50.5,0-75.8,0c-4.1,0-8.2-0.1-12.3-0.3c-2.1-0.1-4.3,0-6.3-1.5c-0.6-0.5-1.7-0.5-2.6-0.5
		c-2.3-0.1-4.6,0.1-6.9,0c-2.3-0.1-4.6-0.4-6.9-0.6c-1-0.1-2-0.2-3.1-0.2c-4.2,0-8.5-0.1-12.7,0c-3.1,0.1-6.1,0.4-9.1,1
		c-5.9,1-11.8,0.7-17.7,0.5c-2.3,0-4.4-1.2-5.7-3.4c-1.4-2.4-2.6-4.7-2.6-7.5c0-1.3-0.3-2.5-0.9-3.7c-1.1-2.3-1.6-4.8-1.6-7.5
		c0.2-7.6,0.3-15.1,0.4-22.7c0.1-4,0-8,0-11.9c0-0.5,0-1.1-0.1-1.5c-1.1-3-0.8-6.1-0.8-9.1c0-6.7,0.1-13.3,0-20c0-2,0.4-3.8,1.4-5.5
		C2.9,58,4,55.5,5.3,53.2c2-3.5,5.3-5.5,9-6.8c0.7-0.3,1.5-0.2,2.3-0.2c1.8,0,3.6,0,5.4,0c0.8,0,1.6,0.2,2.3-0.1
		c3.4-1.2,6.8-0.7,10.3-0.8c2.2-0.1,4.3,0.1,6.5-0.5c1.3-0.3,2.8,0.1,4.2,0.2c2.9,0.1,5.9,0,8.8,0.9c0.5,0.2,1,0.1,1.5,0.1
		c7.7,0.1,15.4,0.2,23.1,0.2c0.7,0,1.5-0.1,2.4-0.2c0-1.7,0-3.2,0.1-4.7c0.1-1.8,0.9-2.6,2.6-2.7c1.8-0.1,3.6,0.1,5.6,0.2
		c0.4-0.4,0.8-1.3,1.6-1.7c1-0.5,1-1.4,1.4-2.1c0.4-0.8,1.3-1.3,1.7-2c0.7-1.4,1.8-2.1,3.4-2.4c0.1-1.2,0.1-2.4,0.1-3.5
		c0.1-2.8,0-5.6,0.7-8.4c0.7-2.5,0.5-5.1-1.2-7.3c-1.2-1.5-1.3-3.3-1-5.1c0.3-1.8,0.8-3.5,1.2-5.2c0.2-0.7,0.7-1.2,1.4-1
		c0.4,0.1,0.9,0.6,1,1C100,2.7,100,4.4,99.4,6C99,7.3,99.2,8.5,100,9.6c2.5,3.4,2.5,7.1,1.6,11c-0.7,3-0.4,6.1-0.2,9.1
		c1.7,0.7,3.5-0.1,5.1,1.2c-0.2,1-0.8,2.2-0.5,3C106.6,35.1,106.5,36.1,106.3,37.3z M41.3,50c-3.9,0-7.2,0-10.5,0
		c-1,0-2.1-0.1-3,0.3c-1.6,0.7-3.2,0.6-4.9,0.6c-1.7,0-3.3-0.1-5,0c-3.5,0.2-6.5,1.6-8.3,4.7c-1.1,1.9-1.9,3.9-3.1,5.8
		c-1.2,1.9-1.5,4-1.5,6.2C5.1,74.6,5,81.7,5.1,88.7c0,0.9-0.2,1.9,0.1,2.7c1.1,3,0.7,6.1,0.7,9.1c0,2.1,0.1,4.1,0.8,6.1
		c0.8,2.3,0.9,4.7,0.9,7.2c-0.1,9,0,18-0.1,26.9c0,2,0.4,3.8,1.4,5.5c0.8,1.5,2.1,2.3,3.7,2.3c1.3,0,2.6-0.1,3.8-0.2
		c-3.9-0.7-5.8-3.3-6.9-6.8c-0.2-0.6-0.4-1.2-0.5-1.9c-0.4-2,0-3.4,0.9-3.3c1.5,0.1,1.7,1.4,2.1,2.4c0.4,1,0.6,2,1,2.9
		c0.9,1.9,2.1,3.2,4.4,3c1-0.1,2.1-0.2,3.1,0.1c2.9,0.9,5.8,0.7,8.8,0.7c1.1,0,2.3,0.2,3.4,0.3c2.3,0.2,4.6,0.5,6.9,0.6
		c4.4,0.2,8.8-0.2,13.1,0.5c5.5,0.8,11,0.8,16.5,0.8c2.7,0,5.4-0.2,8.1-0.3c1.4-0.1,2.6-0.1,3.9,0.9c0.9,0.7,2.4,0.7,3.6,1
		c1.5,0.3,3,0.5,4.5,0.7c1.1,0.2,2.3,0.3,3.4,0.3c15.4,0.2,30.8-0.2,46.2,0.5c7.7,0.4,15.4,0.1,23.1,0c1.8,0,3.6-0.2,5.4-0.4
		c2.3-0.3,4.6-0.9,6.8-1c7.2-0.3,14.2-1.9,21.1-4c3.9-1.2,6.9-3.3,8-7.5c0.6-2,2.2-3.8,1.6-6.2c-0.1-0.3,0.2-0.8,0.4-1.1
		c1.4-2.3,1.6-4.8,1.6-7.4c0-14.6,0-29.2,0.1-43.9c0-1,0-2.1-0.3-3c-0.6-1.6-0.6-3.3-0.5-4.9c0.1-3.5-1-6.8-2-10.1
		c-0.3-1.2-1.1-2-2.2-2.5c-0.8-0.4-1.6-0.8-2.5-1c-5.8-1.5-11.7-3-17.7-3.3c-0.9,0-1.8-0.2-2.7-0.3c-3.7-0.8-7.5-1.7-11.2-2.6
		c-4.8-1.2-9.5-1.8-14.4-1.7c-14.4,0.1-28.7,0-43.1,0c-4.6,0-9.2,0.4-13.8,0.6c-2,0.1-4.1,0.2-6.1,0.2c-10.4,0-20.8-0.1-31.2,0
		c-2.6,0-5.1,0.3-7.6,0.6c-1.8,0.2-3.6,0.5-5.3,0.7C44.1,52.3,42.2,52.1,41.3,50z M113,43.5c-0.1-1.1-0.8-1.2-1.4-1.4
		c-4.2-1.3-8.5-1.5-12.9-0.9c-4.4,0.6-8.8,1.4-13.5,1.3c0.5,1.2,0.9,2.3,1.5,3.7c2,0,4,0.1,6.1,0c4.3-0.2,8.7-0.4,13-0.9
		C108.3,45.1,110.7,44.3,113,43.5z"/>
	<path class="st0" d="M195.3,130.2c-0.3-5.8,1-11.8,1.4-17.8c0.6-8.4,0.7-16.9-0.4-25.4c-0.7-5.3-1-10.7-1.5-16.2
		c-0.9-1.4-2.5-1.6-4.3-1.6c-4.9,0-9.7,0-14.6,0c-1.8,0-3.6,0.1-5.3-0.6c-0.7-0.3-1.5-0.1-2.3-0.2c-4.4-0.8-8.9-1-13.4-0.9
		c-4.4-1.5-8.9-0.7-13.3-1c-5.2-0.4-10.4-1-15.6-1.6c-0.3,0-0.5-0.1-0.8-0.1c-5.2-0.3-10.5-0.8-15.7-1c-5.8-0.2-11.5-0.1-17.3,0
		c-3.5,0-6.9-0.2-10.3,0.7c-1.1,0.3-2.3,0.2-3.5,0.2c-7.7,0-15.4,0-23.1,0c-1.5,0-3-0.3-4.6-0.5c-2.4-0.2-4.9-0.5-7.3-0.4
		c-4,0.2-7.9-0.9-11.8-1.6c-1.1-0.2-2.3-0.4-3.3-0.8c-0.5-0.2-0.7-0.9-1.4-1.7c1.6,0.2,2.7,0.2,3.8,0.4c2.6,0.4,5.3,1,7.9,1.4
		c0.3,0,0.5,0.1,0.8,0.1c6.4-0.5,12.8,1,19.2,0.9c5.9-0.1,11.8,0,17.7,0c2.7,0,5.4,0.1,8-0.6c1.3-0.3,2.8-0.2,4.2-0.2
		c7.2,0,14.4-0.1,21.5,0c2.2,0,4.3,0.4,6.5,0.6c0.3,0,0.5,0.1,0.8,0.1c5.2,0.3,10.5,0.7,15.7,1c0.8,0,1.6-0.1,2.3,0.1
		c4.1,1.2,8.4,0.8,12.6,0.9c2.2,0,4.3-0.1,6.4,0.7c1.1,0.4,2.5,0.2,3.8,0.3c2.7,0.1,5.4-0.3,8,0.8c3.8-0.1,7.5,1.2,11.4,1.1
		c4.9-0.2,9.7,0,14.6-0.1c1.5,0,2.7,0.5,3.8,1.5c0.8,0.8,1.2,1.6,1.2,2.7c0,1.9-0.1,3.8,0,5.8c0.3,4.1,0.8,8.2,1.2,12.2
		c0.2,1.9,0.5,3.8,0.5,5.7c-0.1,6.8-0.3,13.6-0.4,20.4c0,2.4,0,4.9,0,7.3c-0.1,2.3-0.1,4.6-0.4,6.9c-0.3,2-1.2,3.9-2.8,5.3
		c-0.9,0.7-2,1.3-2.7,2.2c-2.7,3.4-6.5,4.5-10.5,4.9c-4.3,0.4-8.7,0.6-13,0.8c-2.4,0.1-4.9,0.1-7.2,0.7c-1.1,0.3-2.3,0.3-3.4,0.4
		c-1.3,0.1-2.6,0-3.8,0.1c-6.1,0.4-12-0.5-18-1.5c-1.8-0.3-3.6-0.5-5.3-0.5c-8.5,0-16.9,0-25.4,0c-1.9,0-3.8-0.4-5.7-0.6
		c-1.4-0.1-2.8-0.2-4.2-0.3c-3.7-0.1-7.4,0-11.1-0.7c-4.1-0.8-8.4-0.8-12.6-1.1c-0.3,0-0.5,0-0.8,0c-5.4-1.3-11-0.7-16.4-1.7
		c-1.4-0.3-2.8-0.2-4.2-0.2c-5.3,0-10.5-0.2-15.8,0c-3.9,0.2-7.6-0.7-11.4-1.1c-0.9-0.1-1.3-0.7-1.1-1.9c1.6-0.4,3.2-0.2,4.8,0.2
		c2.1,0.6,4.3,0.7,6.5,0.6c5.4,0,10.8,0,16.2,0c1.8,0,3.6,0.1,5.4,0.2c3.6,0.4,7.1,0.9,10.7,0.8c0.9,0,1.8,0.2,2.7,0.3
		c1.5,0.2,3,0.4,4.6,0.5c2,0.1,4.1-0.1,6.1,0.6c0.8,0.3,1.8,0.2,2.7,0.3c1,0.1,2.1-0.1,3.1,0.2c2.9,0.9,5.8,0.7,8.8,0.7
		c2.8,0,5.6,0,8.4,0.7c1.3,0.3,2.8,0.3,4.2,0.3c8.1,0,16.2,0.1,24.2,0c4.4-0.1,8.6,0.9,13,1.5c0.9,0.1,1.8,0.4,2.6,0.4
		c4.4,0,8.7,0,13.1,0c0.5,0,1.1,0,1.5-0.1c2.9-1,5.8-0.8,8.8-0.7c2.7,0.1,5.3-0.2,7.9-1.2c2-0.8,4.1-1.4,6.4-1.2
		c1,0.1,2.3-0.5,3.2-1.1C190.1,135.2,192.9,133.2,195.3,130.2z"/>
	<path class="st0" d="M71.6,110c-4,1.4-8.2,0-12.4,1c-0.1,0.8-0.3,1.5-0.3,2.2c0,2.2,0,4.4,0,6.5c-0.1,2.7-1.5,4.7-4,5.4
		c-3,0.8-6,1.2-9.1,0.9c-3-0.3-4.9-2.2-5.2-5.3c-0.2-2.4-0.2-4.9-0.2-7.2c-0.9-1.4-2.3-1.6-3.8-1.7c-1.1-0.1-2.3-0.1-3.5,0
		c-2.3,0.1-3.6-1-4.3-3c-0.3-0.8-0.7-1.7-0.7-2.6c-0.2-3.1-0.4-6.1-0.2-9.2c0.1-2.7,1.9-4.4,4.6-4.9c1.2-0.2,2.5-0.2,3.8-0.2
		c1.3,0,2.5,0.2,3.9,0.3c1.7-4.2,0.3-8.3,0.4-12.5c1.3-1.8,3.1-2.5,5.3-2.6c2.2,0,4.4-0.2,6.4,0.7c0.7,0.3,1.5,0.4,2.2,0.4
		c2-0.2,3.8,0.3,5.6,1.4c1.1,2.1,1.6,4.5,1.5,7c0,1,0,2.1,0,3.1c0.1,2,1.4,3.3,3.4,3.4c1,0,2.1-0.1,3.1,0c2.7,0.2,4.5,1.9,4.7,4.7
		c0.2,2.8,0.2,5.6,0,8.5C72.6,107.4,72,108.6,71.6,110z M58,87.5c-0.1-1.2-0.2-2.9-0.4-4.5c-0.2-1.3-0.8-1.9-1.9-2
		c-2.7-0.3-5.3-0.7-8-0.8c-2.8-0.2-3.5,0.5-3.5,3.2c0,3.1,0.1,6.1,0.2,9.2c0,1,0.5,1.6,1.1,2.3c1.4,1.6,3.6,2.5,4.5,4.7
		c0.3,0.7,1.7,0.8,2.4,0.2c0.9-0.9,1.9-1.8,2.4-2.9c0.4-1,0.9-1.8,1.7-2.4c1.3-1.2,2-2.6,1.6-4.4C57.9,89.2,58,88.5,58,87.5z
		 M55.7,114.6c1.1-3.1-0.2-5.7-2.9-7.9c-0.2-0.2-0.3-0.4-0.4-0.6c-1.3-1.6-1.9-1.7-3.5-0.6c-2.2,1.6-3.8,3.7-5.4,5.8
		c-0.6,0.8-1,1.6-0.7,2.4c0.8,2,0.6,4,0.8,6c0.2,2.2,1,3.2,3,3.2c2.4,0,4.8-0.3,7.2-0.7c1.2-0.2,1.9-1.2,2-2.5
		C55.8,118.1,55.7,116.6,55.7,114.6z M42.2,108.3c1.8-1.9,3.6-3.7,5.3-5.4c-0.4-2.4-2.3-3.6-3.3-5.3c-0.7-1.1-1.7-1.4-2.9-1.5
		c-2-0.2-4-0.5-6.1-0.7c-0.8-0.1-1.5-0.1-2.3,0c-1,0.1-1.7,0.7-1.8,1.7c-0.4,3.4-0.5,6.9,0.5,10.3c0.2,0.8,0.8,1.3,1.6,1.4
		c0.9,0.1,1.8,0.2,2.6,0.2C37.9,108.8,39.9,108.5,42.2,108.3z M52.6,102.3c1.8,3,4.6,4.2,7,5.8c0.3,0.2,0.7,0.3,1.1,0.3
		c3.3-0.2,6.8,0,9.1-3.7c0-1.6,0-3.7,0-5.7c-0.1-2.4-0.5-2.9-2.8-3.4c-2-0.4-4-0.6-6.2-0.9C58,97.1,55,99.3,52.6,102.3z"/>
	<path class="st0" d="M141.9,120.9c-3.8,0.7-6.7-1.1-9.4-3.4c-1.3-1.2-2-2.6-2.2-4.3c-0.4-3.7,0.9-6.8,3.3-9.5c0.9-1,2-1.9,2.3-3.4
		c0.2-1.1,1.3-1.7,2.3-1.7c2.7-0.1,5.4-0.2,8.1,0c0.9,0.1,1.9,0.7,2.7,1.3c2.4,2,4.3,4.5,5.3,7.4c1.9,5.2,0.5,8.4-3.4,11
		C148.2,120,145.4,121.6,141.9,120.9z M138.7,101.3c-1.3,2.1-2.5,4-3.7,5.9c-0.4,0.7-0.8,1.3-1,2.1c-0.5,1.5-0.8,3.1,0.1,4.4
		c1.3,2,3.1,3.4,5.5,3.8c3.4,0.5,6.5-0.1,9.5-2.1c2.9-2,3.4-4.5,2.2-7.3c-0.9-2.2-2.3-4.3-4.1-5.9c-0.5-0.5-1.3-0.9-2-0.9
		C143,101.3,140.8,101.3,138.7,101.3z"/>
	<path class="st0" d="M178.3,97c0.2,4.9-2.6,7.3-6.7,8.9c-1.2,0.5-2.5,0.7-3.7,0.9c-6.1,1.1-12.6-3.8-13.3-9.9c-0.2-1.6,0.1-3,1-4.4
		c1.3-1.9,2.7-3.7,4.4-5.3c4.6-4.3,10.4-4,14.4,0.8c0.8,1,1.6,2,2.3,3C177.8,93,178.6,95,178.3,97z M175.1,96.8
		c-0.1-0.6-0.1-1.3-0.2-1.9c-0.9-2.6-2.6-4.7-4.6-6.4c-1.9-1.6-5.3-1.6-6.8-0.3c-2,1.8-3.8,3.8-5.1,6.2c-0.3,0.6-0.6,1.5-0.5,2.2
		c0.4,2.5,1.6,4.5,3.9,5.8c3.7,2.1,7.1,1.2,10.5-0.5C174.4,100.9,175.3,99.1,175.1,96.8z"/>
	<path class="st0" d="M25.9,60.4c-0.5,1.4-1.9,0.8-2.6,1.6c-0.6,0.7-1.2,1.4-1.9,1.9c-4.1,3.2-5.7,7.4-5.7,12.4c0,5.6,0,11.3,0,16.9
		c0,1,0,2.1,0,3.1c-0.2,6,0.3,12,1.6,17.9c0.8,3.7,1.4,7.6,2,11.3c0.2,1,0,2-0.1,3c0,0.2-0.5,0.6-0.8,0.6c-0.3,0-0.8-0.3-0.8-0.6
		c-0.5-2.8-0.9-5.5-1.4-8.3c-0.7-4.2-1.4-8.3-2.1-12.5c-0.3-1.9-0.5-3.8-0.5-5.7c0-8.4,0-16.9,0-25.3c0-3.9,0.7-7.7,3.3-10.8
		c1.7-2,3.7-3.8,5.8-5.5C23.5,59.6,24.7,59.8,25.9,60.4z"/>
	<path class="st0" d="M85.9,119.2c2.3,0,4.6-0.1,6.9,0c1.7,0.1,2.4,0.7,2.5,2.3c0.1,1.5,0.1,3.1,0,4.6c-0.1,1.7-0.9,2.6-2.5,3
		c-0.9,0.2-1.8,0.3-2.7,0.2c-3.6-0.3-7.1-0.6-10.6-1c-1-0.1-1.9-0.6-2.9-1c-1.2-0.5-1.7-1.4-1.8-2.7c-0.3-3.8,0.7-5.1,4.6-5.4
		C81.5,119.2,83.7,119.3,85.9,119.2C85.9,119.3,85.9,119.2,85.9,119.2z M91.9,122.3c-4.7-0.2-9.3-0.3-14,0c-0.1,0.7-0.3,1.4-0.1,1.7
		c0.4,0.6,1.1,1.2,1.7,1.3c3,0.4,6.1,0.7,9.2,1c1,0.1,2-0.1,3.2-0.2C91.9,124.7,91.9,123.7,91.9,122.3z"/>
	<path class="st0" d="M114.5,117.7c2.2-0.1,4.3,0.3,6.3,1.4c1.2,0.7,1.9,1.6,1.9,3c0,1,0.1,2,0,3.1c-0.1,1.9-1.2,3.1-3.1,3.3
		c-1.1,0.1-2.3,0.1-3.4,0c-2.7-0.2-5.3-0.5-8-0.9c-3.9-0.5-5.5-2.9-4.4-6.7c0.4-1.3,1.3-2.2,2.7-2.4c1.4-0.2,2.8-0.3,4.1-0.4
		C112,117.9,113.3,117.8,114.5,117.7z M119.4,125.3c0.5-3.7,0.1-4.3-2.9-4.6c-1-0.1-2,0-3.1,0c-1.9,0-3.8,0-5.7,0
		c-1.4,2.6-1.1,3.5,1.6,3.8c2.4,0.3,4.8,0.6,7.2,0.8C117.3,125.4,118.2,125.3,119.4,125.3z"/>
	<path class="st0" d="M85.1,98.3c0.7-3.6,1-3.9,4.1-4.2c0.4,0,0.8-0.1,1.1-0.1c6.1,0,12.3,0,18.4,0c1.2,0,2.4,0,2.8,1.4
		c0.4,1.5,0.2,2.8-1.1,3.8c-0.6,0.4-1.4,0.7-2.1,0.8c-0.9,0.1-1.8,0.1-2.7,0.1c-4.7,0-9.5-0.1-14.2,0.1
		C89.2,100.1,87.2,99.6,85.1,98.3z M90,96.5c0.3,1.2,1,1.1,1.6,1.1c2.2,0,4.4,0,6.5,0c3.1,0,6.2,0,9.2,0c0.6,0,1.3-0.1,1.3-1
		C106.1,96.1,94.2,96,90,96.5z"/>
	<path class="st0" d="M87.4,84.9c3.3-0.2,6.6-0.4,9.9,0.2c1.9,0.4,3.8,0.4,5.7,0.4c2.3,0.1,4.6,0,6.9,0.1c0.4,0,1.1,0.4,1.2,0.7
		c0.1,0.5-0.1,1.4-0.5,1.7c-1.3,1.1-2.8,1.8-4.5,1.8c-6.3,0-12.6,0-18.8,0.1c-0.3,0-0.5,0-0.8-0.1c-1.2-0.2-1.7-1.2-1-2.2
		C86.1,86.9,86.6,86.1,87.4,84.9z"/>
	<path class="st0" d="M150.5,111.1c-1.4,4.1-4.9,3.4-6.9,5.1c-0.9-0.7-0.8-1.2-0.2-1.7c0.2-0.2,0.4-0.4,0.6-0.5
		C145.9,113.1,147.9,112.3,150.5,111.1z"/>
	<path class="st0" d="M169.4,100.5c0.6-1.6,1.2-2.6,1.4-3.6c0.2-0.9,0-2,0-3c1.8,0.2,1.9,0.4,2.1,2C173.3,98.8,173,99.2,169.4,100.5
		z"/>
</g>
</svg>
