<?xml version="1.0" encoding="utf-8"?>
<!-- Generator: Adobe Illustrator 25.2.0, SVG Export Plug-In . SVG Version: 6.00 Build 0)  -->
<svg version="1.1" id="Capa_1" xmlns="http://www.w3.org/2000/svg" xmlns:xlink="http://www.w3.org/1999/xlink" x="0px" y="0px"
	 viewBox="0 0 308.6 292.8" style="enable-background:new 0 0 308.6 292.8;" xml:space="preserve">
<style type="text/css">
	.st0{fill:#FFFFFF;}
</style>
<g>
	<path class="st0" d="M300.6,162.4c-1.4,3.1-1.1,6.4-1.6,9.6c-5.9,38.2-24.6,69-54.4,93.2c-12.9,10.5-27.5,17.9-43.1,23.4
		c-6.5,2.3-10.9-0.9-11-7.9c-0.1-14,0-28-0.2-42c-0.1-9-2.5-17.2-9.5-24c5-0.9,9.7-1.7,14.4-2.5c9.7-1.8,18.7-5.6,27-11
		c10.9-7,17.6-17.2,21.2-29.4c4.3-14.5,5.8-29.2,2.4-44.2c-1.9-8.5-5.9-16-11.6-22.5c-1.2-1.4-1.5-2.5-0.9-4.3
		c4.2-12,2.5-23.7-1.8-35.4c-0.5-1.3-1.4-1.4-2.4-1.5c-5-0.5-9.6,1-14.1,2.7c-7.7,3-15.1,6.7-21.9,11.4c-1.5,1-2.8,1.2-4.5,0.8
		c-17.2-4.7-34.7-5.5-52.3-3.3c-5.3,0.7-10.5,1.6-15.6,3.1c-2,0.6-3.5,0.4-5.3-0.8c-9.2-6.1-19.1-10.8-29.9-13.5
		c-0.6-0.2-1.3-0.3-2-0.3c-6-0.4-6.1-0.4-7.9,5.3c-3.2,10.7-4,21.5,0,32.2c0.6,1.6-0.1,2.3-0.9,3.2c-6.9,7.8-11.1,17-12.8,27.2
		c-1.5,9.3-1,18.6,0.5,27.9c1.6,9.8,4.7,19.1,10.1,27.6c6.9,10.6,17.1,16.8,28.5,21.3c8.3,3.3,17,4.5,25.8,5.7
		c0.2,0,0.3,0.1,0.8,0.3c-3.1,3.5-5.8,7.1-7.1,11.5c-0.4,1.4-1.1,2.9-1.2,4.4c-0.1,3.1-1.8,4.4-4.5,5.2c-9.3,2.5-18.6,4.1-27.5-1.4
		c-4.5-2.8-7.9-6.6-10.5-11.1c-4.3-7.3-10.3-12.6-18.4-15.3c-3-1-6.1-1.4-9.2-0.5c-2,0.6-2.7,1.6-1.4,3.5c1.2,1.8,2.6,3.4,4.4,4.4
		c7.7,4.4,12,11.4,15.5,19.1c2.1,4.6,3.9,9.2,7.8,12.8c6.3,5.8,14,7.6,22.2,8.2c6.4,0.5,12.7,0.4,19-0.9c1.3-0.3,1.5,0.2,1.5,1.2
		c0.1,8.8,0.4,17.5,0.1,26.3c-0.1,5.5-5.1,8.3-10.8,6.4c-7.4-2.5-14.6-5.5-21.4-9.1c-30.9-16.5-52.8-41.2-66.8-73.1
		c-6.2-13.3-9.4-27.5-10.7-42.2c-0.1-0.6,0.3-1.4-0.6-1.7c0-2.1,0-4.2,0-6.3c0.5-1.1,0.5-2.3,0-3.4c0-1.7,0-3.4,0-5.1
		c0.6-1,0.2-2,0.3-3c0-1.1,0-2.1,0-3.2c0-0.9,0-1.8,0-2.7c0-16.3,4.3-31.6,10.6-46.4c5.8-13.6,13.5-26,23-37.3
		c9.9-11.8,21.4-21.6,34.4-29.8C94,14,113.1,6.9,133.8,4.2c9.7-1.3,19.4-1.7,29.3-1.1c15.6,1,30.7,4.1,45.3,9.9
		c14.5,5.7,27.7,13.5,39.6,23.5c23,19.1,38.8,42.9,47.4,71.5c3,10,5.1,20.1,4.9,30.6c0,0.9,0,1.8,0,2.7c0,1.1,0,2.1,0,3.2
		c0.1,1-0.3,2.1,0.3,3.1c0,2.7,0,5.3,0,8c-0.5,0.5-0.2,1.1-0.3,1.7c0,0.3,0,0.7,0,1c0,0.4-0.1,0.9,0.3,1.3
		C300.6,160.5,300.6,161.5,300.6,162.4z"/>
</g>
</svg>
